<svg width="7381" height="3199" viewBox="0 0 7381 3199" fill="none" xmlns="http://www.w3.org/2000/svg">
<g clip-path="url(#clip0_406_16)">
<path fill-rule="evenodd" clip-rule="evenodd" d="M5604.27 333.639C5632.85 305.726 5647.15 268.284 5647.15 221.316V175.935H5496.96V226.581H5583.96L5583.71 234.103C5583.21 259.008 5574.35 279.149 5557.14 294.527C5539.92 309.904 5517.52 317.593 5489.94 317.593C5457.68 317.593 5432.11 305.726 5413.22 281.991C5394.5 258.255 5385.14 225.829 5385.14 184.71C5385.14 144.093 5394.33 112.001 5412.72 88.4327C5431.27 64.8647 5456.35 53.0808 5487.94 53.0808C5511 53.0808 5530.39 58.5967 5546.1 69.6285C5561.98 80.6602 5573.18 96.4558 5579.7 117.015H5644.14C5638.29 80.0752 5621.24 50.5735 5592.99 28.5099C5564.74 6.44635 5529.72 -4.58545 5487.94 -4.58545C5436.46 -4.58545 5395.42 12.6308 5364.83 47.0634C5334.24 81.3288 5318.95 127.378 5318.95 185.212C5318.95 243.881 5334.16 290.264 5364.58 324.363C5395 358.294 5436.46 375.259 5488.94 375.259C5537.25 375.259 5575.69 361.386 5604.27 333.639ZM5920.59 366.233V310.322H5751.11V209.03H5911.32V156.378H5751.11V60.3517H5920.59V4.44057H5686.42V366.233H5920.59ZM6029.57 179.194V58.0952H6102.78C6123.34 58.0952 6139.47 63.5275 6151.17 74.3922C6163.04 85.0897 6168.97 99.8823 6168.97 118.77C6168.97 137.992 6163.29 152.868 6151.92 163.399C6140.72 173.929 6124.84 179.194 6104.28 179.194H6029.57ZM6029.57 366.233V230.592H6101.27L6172.23 366.233H6246.19L6167.21 220.563C6188.61 212.875 6205.32 199.837 6217.36 181.451C6229.39 162.897 6235.41 141.586 6235.41 117.516C6235.41 82.7496 6224.3 55.2537 6202.06 35.0287C6179.83 14.6366 6149.75 4.44057 6111.8 4.44057H5964.88V366.233H6029.57ZM6277.94 366.233H6338.12V111.75H6341.63L6441.67 352.193H6487.8L6587.84 111.75H6591.35V366.233H6651.52V4.44057H6575.8L6466.99 267.95H6462.48L6353.66 4.44057H6277.94V366.233ZM6907.67 273.717L6938.26 366.233H7007.71L6879.09 4.44057H6806.38L6678.01 366.233H6743.45L6774.54 273.717H6907.67ZM6789.58 222.569L6839.22 73.3893H6843.48L6892.63 222.569H6789.58ZM7033.94 366.233H7096.37V120.024H7100.63L7278.15 366.233H7334.06V4.44057H7271.88V250.399H7267.62L7090.1 4.44057H7033.94V366.233ZM3179.51 2750.92L3355.6 3172.97H3588.46L4802.22 0.318306H4231.72L3179.51 2750.92ZM-0.429688 1.77358L920.804 2283.75L1203.14 1547.35L581.708 1.77358H-0.429688ZM1309.26 3168.61L1128.92 2750.34L2142.62 1.77358H2667.65L3263.91 1558.23L2986.15 2272.33L2402.95 848.497L2142.62 1558.23C2615 1656.16 2673.95 1762.19 2667.65 1809.31C2311.62 1751.02 2031.64 2005.6 1907.53 2138.22L1517.5 3168.61H1309.26ZM5487.5 2299.6L5566.05 2024.69H5570.08L5649.17 2299.6H5714.26L5818.37 1911.44H5746.54L5680.1 2200.34H5676.34L5598.86 1911.44H5537.26L5460.87 2200.34H5456.83L5390.39 1911.44H5318.03L5422.13 2299.6H5487.5ZM5851.36 2299.6H5920.76V1911.44H5851.36V2299.6ZM5977.96 2299.6H6044.94V2035.45H6049.51L6239.96 2299.6H6299.95V1911.44H6233.23V2175.33H6228.66L6038.21 1911.44H5977.96V2299.6ZM6357.41 2299.6H6424.39V2035.45H6428.97L6619.42 2299.6H6679.4V1911.44H6612.69V2175.33H6608.12L6417.67 1911.44H6357.41V2299.6ZM6988.11 2299.6V2239.62H6806.27V2130.94H6978.16V2074.45H6806.27V1971.43H6988.11V1911.44H6736.87V2299.6H6988.11ZM7105.03 2098.93V1969.01H7183.58C7205.64 1969.01 7222.94 1974.84 7235.49 1986.49C7248.23 1997.97 7254.59 2013.84 7254.59 2034.1C7254.59 2054.73 7248.5 2070.69 7236.3 2081.99C7224.29 2093.28 7207.25 2098.93 7185.19 2098.93H7105.03ZM7105.03 2299.6V2154.08H7181.96L7258.09 2299.6H7337.44L7252.71 2143.32C7275.66 2135.07 7293.6 2121.08 7306.51 2101.35C7319.42 2081.45 7325.88 2058.58 7325.88 2032.76C7325.88 1995.46 7313.95 1965.96 7290.1 1944.26C7266.25 1922.38 7233.97 1911.44 7193.26 1911.44H7035.63V2299.6H7105.03ZM5569.47 1747.09L5538.82 1654.39H5405.43L5374.28 1747.09H5308.71L5437.33 1384.59H5510.19L5639.06 1747.09H5569.47ZM5470.24 1453.67L5420.5 1603.14H5523.75L5474.51 1453.67H5470.24ZM5845.21 1490.35L5771.86 1747.09H5710.81L5613.59 1384.59H5681.17L5743.22 1654.39H5746.99L5818.33 1384.59H5875.86L5948.21 1654.39H5951.72L6013.77 1384.59H6080.84L5983.63 1747.09H5922.83L5848.98 1490.35H5845.21ZM6316.39 1747.09L6285.74 1654.39H6152.35L6121.2 1747.09H6055.63L6184.25 1384.59H6257.1L6385.97 1747.09H6316.39ZM6217.16 1453.67L6167.42 1603.14H6270.67L6221.43 1453.67H6217.16ZM6477.07 1438.35V1559.69H6551.93C6572.53 1559.69 6588.44 1554.41 6599.66 1543.86C6611.05 1533.31 6616.75 1518.4 6616.75 1499.14C6616.75 1480.22 6610.8 1465.4 6598.91 1454.68C6587.19 1443.79 6571.03 1438.35 6550.43 1438.35H6477.07ZM6477.07 1611.18V1747.09H6412.26V1384.59H6559.47C6597.49 1384.59 6627.63 1394.81 6649.91 1415.24C6672.18 1435.5 6683.32 1463.05 6683.32 1497.89C6683.32 1522 6677.29 1543.36 6665.23 1561.95C6653.17 1580.37 6636.42 1593.43 6614.99 1601.13L6694.12 1747.09H6620.01L6548.92 1611.18H6477.07ZM6725.93 1384.59H6861.84C6915.76 1384.59 6957.63 1400.33 6987.44 1431.82C7017.42 1463.14 7032.41 1507.27 7032.41 1564.21C7032.41 1622.32 7017.5 1667.37 6987.69 1699.36C6958.05 1731.18 6916.1 1747.09 6861.84 1747.09H6725.93V1384.59ZM6790.74 1440.61V1691.07H6853.29C6889.47 1691.07 6917.35 1680.18 6936.95 1658.41C6956.54 1636.64 6966.34 1605.57 6966.34 1565.21C6966.34 1525.69 6956.38 1495.04 6936.45 1473.27C6916.68 1451.5 6888.97 1440.61 6853.29 1440.61H6790.74ZM7053.67 1648.61H7116.98C7118.98 1664.86 7127.44 1677.84 7142.35 1687.55C7157.25 1697.1 7176.18 1701.87 7199.12 1701.87C7220.56 1701.87 7238.14 1697.01 7251.88 1687.3C7265.78 1677.42 7272.73 1664.86 7272.73 1649.62C7272.73 1636.56 7267.45 1625.92 7256.9 1617.71C7246.52 1609.51 7229.68 1602.73 7206.41 1597.37L7159.43 1586.56C7126.6 1579.2 7102.24 1567.22 7086.33 1550.64C7070.58 1533.89 7062.71 1512.04 7062.71 1485.08C7062.71 1452.08 7075.02 1425.62 7099.64 1405.69C7124.43 1385.6 7157.08 1375.55 7197.61 1375.55C7235.63 1375.55 7267.11 1385.43 7292.07 1405.19C7317.02 1424.95 7330.25 1450.41 7331.76 1481.56H7269.71C7267.53 1465.65 7259.91 1453 7246.85 1443.63C7233.79 1434.25 7217.29 1429.56 7197.36 1429.56C7176.43 1429.56 7159.6 1434.25 7146.87 1443.63C7134.31 1452.84 7128.03 1465.15 7128.03 1480.55C7128.03 1492.78 7132.97 1502.74 7142.85 1510.45C7152.73 1517.98 7168.89 1524.35 7191.33 1529.54L7233.03 1539.09C7269.71 1547.29 7296.26 1559.52 7312.67 1575.76C7329.25 1592.01 7337.54 1613.95 7337.54 1641.58C7337.54 1676.92 7324.73 1704.88 7299.1 1725.48C7273.65 1745.92 7238.98 1756.13 7195.1 1756.13C7153.57 1756.13 7119.99 1746.42 7094.37 1726.99C7068.91 1707.56 7055.34 1681.44 7053.67 1648.61ZM5761.66 743.143L5622.46 1230.32H5506.63L5322.15 542.455H5450.38L5568.12 1054.42H5575.27L5710.65 542.455H5819.82L5957.1 1054.42H5963.78L6081.52 542.455H6208.8L6024.32 1230.32H5908.96L5768.81 743.143H5761.66ZM6712.49 1124.02V1230.32H6267.26V542.455H6712.49V648.757H6390.25V831.331H6694.85V931.437H6390.25V1124.02H6712.49ZM7090.81 1230.32H6796.69V542.455H7084.14C7149.29 542.455 7200.45 557.868 7237.64 588.694C7274.82 619.202 7293.41 660.993 7293.41 714.064C7293.41 750.293 7281.65 782.549 7258.13 810.833C7234.62 839.117 7205.54 855.96 7170.9 861.363V869.943C7217.3 874.392 7254.96 891.871 7283.87 922.379C7312.79 952.57 7327.25 990.07 7327.25 1034.88C7327.25 1095.26 7306.12 1142.93 7263.85 1177.89C7221.9 1212.84 7164.22 1230.32 7090.81 1230.32ZM6919.68 640.177V831.808H7038.38C7081.92 831.808 7114.97 823.704 7137.53 807.496C7160.41 790.971 7171.85 767.136 7171.85 735.992C7171.85 705.802 7161.52 682.285 7140.87 665.442C7120.21 648.599 7091.29 640.177 7054.11 640.177H6919.68ZM6919.68 1132.6H7062.69C7108.13 1132.6 7142.61 1123.54 7166.13 1105.43C7189.65 1087 7201.41 1060.3 7201.41 1025.35C7201.41 991.023 7189.17 964.964 7164.7 947.167C7140.55 929.371 7104.96 920.473 7057.92 920.473H6919.68V1132.6ZM5366.53 2584.64C5324.78 2622.82 5303.91 2672.02 5303.91 2732.26V2734.05H5412.16V2732.26C5412.16 2699.46 5422.6 2672.92 5443.47 2652.64C5464.34 2632.36 5491.63 2622.22 5525.33 2622.22C5557.24 2622.22 5583.48 2631.46 5604.06 2649.95C5624.93 2668.44 5635.37 2691.85 5635.37 2720.18C5635.37 2742.85 5628.06 2765.51 5613.45 2788.17C5598.84 2810.54 5569.46 2844.09 5525.33 2888.82L5310.17 3108.9V3188.97H5758.38V3091.01H5468.52V3083.41L5603.61 2947.87C5658.48 2893.59 5696.35 2849.61 5717.23 2815.91C5738.1 2781.91 5748.54 2747.62 5748.54 2713.02C5748.54 2659.05 5727.82 2614.61 5686.36 2579.72C5645.21 2544.83 5592.73 2527.39 5528.91 2527.39C5462.7 2527.39 5408.58 2546.47 5366.53 2584.64ZM5878.55 3115.61C5922.09 3175.25 5982.63 3205.08 6060.16 3205.08C6137.4 3205.08 6197.64 3175.25 6240.88 3115.61C6284.42 3055.97 6306.19 2972.92 6306.19 2866.46C6306.19 2759.7 6284.42 2676.49 6240.88 2616.85C6197.34 2557.21 6137.1 2527.39 6060.16 2527.39C5983.22 2527.39 5922.84 2557.21 5879 2616.85C5835.46 2676.2 5813.69 2759.1 5813.69 2865.56C5813.69 2972.62 5835.31 3055.97 5878.55 3115.61ZM6060.16 3109.35C6019.01 3109.35 5987.1 3088.47 5964.44 3046.73C5941.77 3004.68 5930.44 2944.29 5930.44 2865.56C5930.44 2787.73 5941.77 2727.94 5964.44 2686.19C5987.4 2644.44 6019.31 2623.56 6060.16 2623.56C6101.02 2623.56 6132.78 2644.44 6155.44 2686.19C6178.11 2727.64 6189.44 2787.43 6189.44 2865.56C6189.44 2944.29 6178.11 3004.68 6155.44 3046.73C6133.08 3088.47 6101.32 3109.35 6060.16 3109.35ZM6424.57 2584.64C6382.82 2622.82 6361.94 2672.02 6361.94 2732.26V2734.05H6470.19V2732.26C6470.19 2699.46 6480.63 2672.92 6501.51 2652.64C6522.38 2632.36 6549.67 2622.22 6583.36 2622.22C6615.27 2622.22 6641.52 2631.46 6662.09 2649.95C6682.97 2668.44 6693.41 2691.85 6693.41 2720.18C6693.41 2742.85 6686.1 2765.51 6671.49 2788.17C6656.87 2810.54 6627.5 2844.09 6583.36 2888.82L6368.2 3108.9V3188.97H6816.42V3091.01H6526.56V3083.41L6661.65 2947.87C6716.52 2893.59 6754.39 2849.61 6775.26 2815.91C6796.14 2781.91 6806.58 2747.62 6806.58 2713.02C6806.58 2659.05 6785.85 2614.61 6744.4 2579.72C6703.25 2544.83 6650.76 2527.39 6586.94 2527.39C6520.74 2527.39 6466.61 2546.47 6424.57 2584.64ZM7171.43 3068.64V3188.97H7281.92V3068.64H7369.14V2971.13H7281.92V2543.49H7119.09C6996.23 2728.38 6908.55 2869.14 6856.07 2965.76V3068.64H7171.43ZM6962.98 2973.81V2967.1C7029.18 2850.5 7097.17 2740.61 7166.96 2637.43H7173.22V2973.81H6962.98Z" fill="white"/>
</g>
<defs>
<clipPath id="clip0_406_16">
<rect width="7381" height="3199" fill="white"/>
</clipPath>
</defs>
</svg>
